<svg xmlns="http://www.w3.org/2000/svg" width="24" height="24" viewBox="0 0 24 24" fill="none">
<path fill-rule="evenodd" clip-rule="evenodd" d="M16.8431 13.3059C17.3104 13.3059 17.6903 13.6858 17.6903 14.1531V17.805H21.3421C21.81 17.805 22.1899 18.1848 22.1899 18.6527C22.1899 19.1199 21.81 19.5004 21.3421 19.5004H17.6903V23.1517C17.6903 23.6195 17.3104 24 16.8431 24C16.3753 24 15.9948 23.6195 15.9948 23.1517V19.5004H12.3435C11.8762 19.5004 11.4958 19.1199 11.4958 18.6527C11.4958 18.1848 11.8762 17.805 12.3435 17.805H15.9948V14.1531C15.9948 13.6858 16.3753 13.3059 16.8431 13.3059ZM14.9261 0L15.0039 0.049601L19.8783 4.92403V10.5323C19.8783 11.0142 19.4866 11.406 19.0047 11.406C18.5233 11.406 18.131 11.0142 18.131 10.5323V6.57213H14.7266C13.9279 6.57213 13.278 5.92224 13.278 5.12356V1.74731H3.74674V21.6215H12.4348C12.9162 21.6215 13.3085 22.0138 13.3085 22.4952C13.3085 22.9771 12.9162 23.3688 12.4348 23.3688H3.44801C2.64932 23.3688 2 22.7189 2 21.9203V1.44294C2 0.647067 2.64932 0 3.44801 0H14.9261ZM13.2749 12.6812C13.7428 12.6812 14.1227 13.0616 14.1227 13.5289C14.1227 13.9967 13.7428 14.3766 13.2749 14.3766H5.86521C5.39795 14.3766 5.01805 13.9967 5.01805 13.5289C5.01805 13.0616 5.39795 12.6812 5.86521 12.6812H13.2749ZM13.2749 8.99959C13.7428 8.99959 14.1227 9.37949 14.1227 9.84732C14.1227 10.3146 13.7428 10.695 13.2749 10.695H5.86521C5.39795 10.695 5.01805 10.3146 5.01805 9.84732C5.01805 9.37949 5.39795 8.99959 5.86521 8.99959H13.2749ZM15.0253 2.53867V4.82482H17.3115L15.0253 2.53867Z" fill="#00BBBD"/>
</svg>